<?xml version="1.0" encoding="UTF-8" standalone="no"?>
<!DOCTYPE svg PUBLIC "-//W3C//DTD SVG 1.1//EN" "http://www.w3.org/Graphics/SVG/1.1/DTD/svg11.dtd">
<svg width="100%" height="100%" viewBox="0 0 673 739" version="1.1" xmlns="http://www.w3.org/2000/svg" xmlns:xlink="http://www.w3.org/1999/xlink" xml:space="preserve" xmlns:serif="http://www.serif.com/" style="fill-rule:evenodd;clip-rule:evenodd;stroke-linejoin:round;stroke-miterlimit:2;">
    <g transform="matrix(1,0,0,1,-263.734,-80.803)">
        <path d="M730.734,230.607C684.114,223.167 631.024,219.197 575.734,219.197C525.134,219.197 476.384,222.517 432.754,228.777C432.765,228.107 432.774,227.437 432.804,226.767C435.184,146.735 501.67,82.197 581.738,82.197C662.491,82.197 729.3,147.846 730.714,228.587C730.724,229.267 730.734,229.937 730.734,230.607Z" style="fill:rgb(153,203,255);fill-rule:nonzero;"/>
    </g>
    <g opacity="0.1">
        <g transform="matrix(1,0,0,1,-263.734,-80.803)">
            <path d="M601.285,82.144C594.672,81.251 588.006,80.803 581.334,80.803C501.258,80.803 434.759,145.334 432.353,225.373C432.323,226.043 432.313,226.713 432.304,227.383C445.265,225.523 458.688,223.93 472.469,222.599C475.932,151.14 530.391,91.761 601.285,82.144Z" style="fill:white;fill-rule:nonzero;"/>
        </g>
    </g>
    <path d="M296.771,462.915C289.687,470.573 282.298,474.902 279.737,472.703C276.975,470.333 280.864,461.266 288.416,452.469C290.685,449.826 293.028,447.506 295.271,445.618C297.785,424.826 315.512,408.692 336.978,408.692C358.406,408.692 376.109,424.769 378.671,445.508C380.954,447.416 383.344,449.775 385.657,452.469C393.209,461.266 397.098,470.333 394.337,472.703C391.765,474.911 384.325,470.537 377.214,462.819C374.737,471.048 369.801,478.216 363.263,483.47L373.401,488.546L373.389,488.57C377.684,486.16 381.679,485.468 382.749,487.091C383.961,488.928 380.966,493.044 376.065,496.275C373.051,498.263 370.013,499.456 367.839,499.652L367.686,499.958L367.13,499.68C366.124,499.663 365.371,499.379 364.99,498.8C364.936,498.718 364.89,498.631 364.852,498.539L349.456,490.829C345.513,492.056 341.322,492.717 336.978,492.717C332.634,492.717 328.442,492.056 324.5,490.829L309.104,498.539C309.066,498.631 309.02,498.718 308.966,498.8C308.584,499.379 307.831,499.663 306.826,499.68L306.27,499.958L306.117,499.652C303.943,499.456 300.905,498.263 297.891,496.275C292.99,493.044 289.995,488.928 291.207,487.091C292.277,485.468 296.272,486.16 300.567,488.57L300.555,488.546L310.692,483.47C304.18,478.237 299.257,471.103 296.771,462.915Z" style="fill:rgb(140,145,153);"/>
    <g transform="matrix(1,0,0,1,-263.734,-80.803)">
        <path d="M633.854,485.802C634.486,470.249 621.081,457.075 603.913,456.377C586.746,455.68 572.316,467.723 571.684,483.277C571.053,498.831 582.986,502.364 600.154,503.062C617.322,503.759 633.222,501.356 633.854,485.802Z" style="fill:rgb(153,203,255);fill-rule:nonzero;"/>
    </g>
    <path d="M334.037,426.069C341.961,426.069 348.395,432.503 348.395,440.428C348.395,448.353 341.961,454.786 334.037,454.786C326.112,454.786 319.678,448.353 319.678,440.428C319.678,432.503 326.112,426.069 334.037,426.069ZM348.517,467.261C348.62,467.826 348.671,468.4 348.671,468.975C348.671,474.226 344.35,478.548 339.099,478.548C334.492,478.548 330.506,475.222 329.681,470.69L329.678,470.671C328.736,465.469 332.758,463.628 337.96,462.686C343.163,461.745 347.575,462.059 348.517,467.261Z" style="fill:white;"/>
    <path d="M266,495.394C264.903,495.394 264,494.491 264,493.394L264,375.394C264,374.297 264.903,373.394 266,373.394C267.097,373.394 268,374.297 268,375.394L268,493.394C268,494.491 267.097,495.394 266,495.394ZM236,601.394C234.903,601.394 234,600.491 234,599.394L234,513.394C234,512.297 234.903,511.394 236,511.394C237.097,511.394 238,512.297 238,513.394L238,599.394C238,600.491 237.097,601.394 236,601.394ZM313,530.394C311.903,530.394 311,529.491 311,528.394L311,410.394C311,409.297 311.903,408.394 313,408.394C314.097,408.394 315,409.297 315,410.394L315,528.394C315,529.491 314.097,530.394 313,530.394ZM284,615.394C282.903,615.394 282,614.491 282,613.394L282,565.394C282,564.297 282.903,563.394 284,563.394C285.097,563.394 286,564.297 286,565.394L286,613.394C286,614.491 285.097,615.394 284,615.394ZM325,369.394C323.903,369.394 323,368.491 323,367.394L323,319.394C323,318.297 323.903,317.394 325,317.394C326.097,317.394 327,318.297 327,319.394L327,367.394C327,368.491 326.097,369.394 325,369.394ZM225,390.394C223.903,390.394 223,389.491 223,388.394L223,340.394C223,339.297 223.903,338.394 225,338.394C226.097,338.394 227,339.297 227,340.394L227,388.394C227,389.491 226.097,390.394 225,390.394ZM399,395.394C397.903,395.394 397,394.491 397,393.394L397,345.394C397,344.297 397.903,343.394 399,343.394C400.097,343.394 401,344.297 401,345.394L401,393.394C401,394.491 400.097,395.394 399,395.394ZM395,545.394C393.903,545.394 393,544.491 393,543.394L393,485.394C393,484.297 393.903,483.394 395,483.394C396.097,483.394 397,484.297 397,485.394L397,543.394C397,544.491 396.097,545.394 395,545.394ZM355,596.394C353.903,596.394 353,595.491 353,594.394L353,508.394C353,507.297 353.903,506.394 355,506.394C356.097,506.394 357,507.297 357,508.394L357,594.394C357,595.491 356.097,596.394 355,596.394ZM363,449.394C361.903,449.394 361,448.491 361,447.394L361,329.394C361,328.297 361.903,327.394 363,327.394C364.097,327.394 365,328.297 365,329.394L365,447.394C365,448.491 364.097,449.394 363,449.394Z" style="fill:rgb(66,71,78);"/>
    <path d="M506.726,666.271C503.76,665.435 500.493,664.209 497.157,662.627C486.419,657.534 478.999,650.662 480.598,647.291C482.197,643.92 492.213,645.318 502.951,650.411C506.012,651.863 508.804,653.459 511.194,655.078C521.175,637.639 542.394,629.049 562.181,635.645C578.525,641.093 589.434,655.415 591.34,671.471C593.992,673.6 596.829,676.387 599.553,679.641C607.182,688.753 611.054,698.096 608.193,700.491C605.406,702.825 597.248,697.706 589.773,689.012C589.66,689.382 589.543,689.752 589.419,690.121C585.531,701.785 577.124,710.682 566.791,715.512L566.791,733.744L566.767,733.744C566.783,733.834 566.791,733.925 566.791,734.016C566.791,736.273 561.906,738.105 555.888,738.105C549.87,738.105 544.985,736.273 544.985,734.016C544.985,732.04 548.733,730.389 553.707,730.01L553.707,719.266C549.425,719.786 545.019,719.665 540.624,718.836L540.624,733.744L540.6,733.744C540.225,735.873 535.494,737.56 529.72,737.56C523.703,737.56 518.817,735.728 518.817,733.471C518.817,731.495 522.566,729.844 527.54,729.464L527.54,714.098C510.831,704.772 502.078,685.2 506.726,666.271Z" style="fill:rgb(140,145,153);"/>
    <path d="M542.124,653.056C550.048,653.056 556.482,659.49 556.482,667.415C556.482,675.34 550.048,681.774 542.124,681.774C534.199,681.774 527.765,675.34 527.765,667.415C527.765,659.49 534.199,653.056 542.124,653.056ZM542,691.394C545.311,691.394 548,694.082 548,697.394C548,700.705 545.311,703.394 542,703.394C538.689,703.394 536,700.705 536,697.394C536,694.082 538.689,691.394 542,691.394Z" style="fill:white;"/>
    <g transform="matrix(1,0,0,1,-263.734,-80.803)">
        <path d="M935.266,819.197L699.266,819.197C698.717,819.197 698.266,818.746 698.266,818.197C698.266,817.648 698.717,817.197 699.266,817.197L935.266,817.197C935.814,817.197 936.266,817.648 936.266,818.197C936.266,818.746 935.814,819.197 935.266,819.197Z" style="fill:rgb(63,61,86);fill-rule:nonzero;"/>
    </g>
    <g transform="matrix(1,0,0,1,-2e-05,-0.09006)">
        <path d="M532.18,161.624C591.39,177.994 624,199.934 624,223.394C624,236.894 613.21,249.884 592.76,261.594C589.5,263.474 585.99,265.314 582.23,267.114C581.25,267.584 580.25,268.054 579.24,268.514C578.97,268.644 578.69,268.774 578.41,268.894C578.02,269.074 577.64,269.244 577.25,269.424C576.74,269.644 576.21,269.874 575.69,270.114C574.61,270.584 573.51,271.054 572.39,271.524C571.71,271.814 571.01,272.104 570.32,272.384C569.62,272.674 568.91,272.954 568.2,273.244C566.78,273.804 565.34,274.374 563.87,274.924C563.33,275.124 562.8,275.324 562.26,275.534C561.62,275.774 560.97,276.014 560.32,276.244C559.54,276.524 558.75,276.814 557.96,277.094C557.23,277.354 556.5,277.614 555.75,277.864C555.43,277.984 555.1,278.094 554.77,278.204C553.99,278.474 553.2,278.744 552.41,279.004C551.83,279.204 551.24,279.394 550.64,279.594C549.82,279.864 548.99,280.134 548.15,280.404C547,280.774 545.84,281.134 544.67,281.504C543.24,281.944 541.8,282.384 540.33,282.824C540.26,282.844 540.19,282.864 540.11,282.884C538.42,283.394 536.7,283.884 534.96,284.384C534.09,284.624 533.22,284.874 532.34,285.114C532.285,285.126 532.232,285.143 532.18,285.164C531.26,285.414 530.34,285.664 529.41,285.924C526.82,286.614 524.2,287.304 521.54,287.964C521.33,288.014 521.13,288.064 520.92,288.124C481.5,298.024 434.4,304.834 383.49,308.124C360.33,309.624 336.38,310.394 312,310.394C287.7,310.394 263.83,309.634 240.74,308.134C184.8,304.534 133.46,296.684 91.82,285.164C32.61,268.794 0,246.854 0,223.394C0,199.934 32.61,177.994 91.82,161.624C117.214,154.782 143.016,149.552 169.07,145.964C204.266,141.038 239.706,138.044 275.23,136.994C287.34,136.594 299.62,136.394 312,136.394C327.62,136.394 343.07,136.714 358.24,137.334C394.658,138.714 430.966,142.203 466.98,147.784C488.953,151.186 510.72,155.806 532.18,161.624ZM162.669,260.54C179.312,260.54 197,256.959 197,250.323C197,243.687 179.312,240.106 162.669,240.106C146.027,240.106 128.339,243.687 128.339,250.323C128.339,256.959 146.027,260.54 162.669,260.54ZM311.535,282.199C328.177,282.199 345.865,278.618 345.865,271.982C345.865,265.346 328.177,261.765 311.535,261.765C294.892,261.765 277.204,265.346 277.204,271.982C277.204,278.618 294.892,282.199 311.535,282.199ZM91.669,213.54C108.312,213.54 126,209.959 126,203.323C126,196.687 108.312,193.106 91.669,193.106C75.027,193.106 57.339,196.687 57.339,203.323C57.339,209.959 75.027,213.54 91.669,213.54ZM460.669,260.54C477.312,260.54 495,256.959 495,250.323C495,243.687 477.312,240.106 460.669,240.106C444.027,240.106 426.339,243.687 426.339,250.323C426.339,256.959 444.027,260.54 460.669,260.54ZM531.669,213.54C548.312,213.54 566,209.959 566,203.323C566,196.687 548.312,193.106 531.669,193.106C515.027,193.106 497.339,196.687 497.339,203.323C497.339,209.959 515.027,213.54 531.669,213.54Z" style="fill:rgb(140,145,153);fill-rule:nonzero;"/>
    </g>
    <g transform="matrix(1,0,0,1,-263.734,-80.803)">
        <path d="M887.164,305.107C887.164,318.467 876.154,331.107 856.494,342.397C853.224,344.277 849.704,346.117 845.964,347.917C844.984,348.387 843.984,348.857 842.974,349.317C842.704,349.447 842.424,349.577 842.144,349.697C841.754,349.877 841.374,350.047 840.984,350.227C840.474,350.447 839.944,350.677 839.424,350.917C838.344,351.387 837.244,351.857 836.124,352.327C835.444,352.617 834.744,352.907 834.054,353.187C833.354,353.477 832.644,353.757 831.934,354.047C830.515,354.607 829.074,355.177 827.604,355.727C827.064,355.927 826.534,356.127 825.994,356.337C825.354,356.577 824.704,356.817 824.054,357.047C823.274,357.327 822.484,357.617 821.694,357.897C820.964,358.157 820.234,358.417 819.484,358.667C819.164,358.787 818.834,358.897 818.504,359.007C817.724,359.277 816.934,359.547 816.144,359.807C815.564,360.007 814.974,360.197 814.374,360.397C813.554,360.667 812.724,360.937 811.884,361.207C810.734,361.577 809.574,361.937 808.404,362.307C806.974,362.747 805.534,363.187 804.064,363.627C803.994,363.647 803.924,363.667 803.844,363.687C802.154,364.197 800.434,364.687 798.694,365.187C797.824,365.427 796.954,365.677 796.074,365.917C796.019,365.929 795.966,365.946 795.914,365.967C794.994,366.217 794.074,366.467 793.144,366.727C790.564,367.407 787.934,368.097 785.274,368.767C785.064,368.817 784.864,368.867 784.654,368.927C746.304,378.507 699.254,385.487 647.184,388.857C624.374,390.327 600.594,391.107 576.164,391.107C551.515,391.107 527.534,390.317 504.544,388.817C367.304,379.867 265.164,345.787 265.164,305.107C265.175,302.632 265.553,300.172 266.284,297.807C266.344,297.977 266.404,298.137 266.474,298.307C280.744,335.787 382.014,366.077 513.414,373.467C533.544,374.607 554.394,375.197 575.734,375.197C597.164,375.197 618.094,374.597 638.304,373.457C769.594,366.037 870.765,335.737 884.984,298.287C885.224,297.687 885.434,297.087 885.614,296.487C886.628,299.248 887.153,302.165 887.164,305.107Z" style="fill:rgb(66,71,78);fill-rule:nonzero;"/>
    </g>
    <g transform="matrix(1,0,0,1,-263.734,-80.803)">
        <path d="M798.774,703.169C802.619,687.682 819.594,678.568 836.688,682.812C853.783,687.057 864.523,703.053 860.677,718.54C856.831,734.027 844.073,734.077 826.979,729.832C809.885,725.587 794.928,718.656 798.774,703.169Z" style="fill:rgb(212,190,230);fill-rule:nonzero;"/>
    </g>
    <circle cx="536.222" cy="662.268" r="4.786" style="fill:rgb(140,145,153);"/>
    <g transform="matrix(0.707107,-0.707107,0.707107,0.707107,-452.842,492.819)">
        <ellipse cx="597.87" cy="515.084" rx="4.766" ry="4.8" style="fill:rgb(140,145,153);"/>
    </g>
</svg>
